<?xml version="1.0" encoding="utf-8"?>
<!-- Generator: Adobe Illustrator 21.1.0, SVG Export Plug-In . SVG Version: 6.00 Build 0)  -->
<svg version="1.1" id="Layer_1" xmlns="http://www.w3.org/2000/svg" xmlns:xlink="http://www.w3.org/1999/xlink" x="0px" y="0px"
	 viewBox="0 0 124 32" style="enable-background:new 0 0 124 32;" xml:space="preserve">
<style type="text/css">
	.st0-foot{fill:#8bcd13;}
</style>
<g>
	<path class="st0-foot" d="M48.5,13.6h3.4v8.8c0,4.8-3.9,8.9-8.7,8.9c-4.7,0-8.7-4-8.7-8.8v-8.8h3.4v8.9c0,2.9,2.1,5.6,5.3,5.6
		c3.2,0,5.3-2.6,5.3-5.6V13.6z"/>
	<path class="st0-foot" d="M68.7,21.8c0-2.9-2.3-5.3-5.3-5.3c-2.9,0-5.3,2.4-5.3,5.3V31h-3.4v-8.9c0-4.8,4-8.8,8.7-8.8
		c4.8,0,8.6,4.1,8.6,8.8V31h-3.4V21.8z"/>
	<path class="st0-foot" d="M83.8,28c3.2,0,5.6-2.6,5.6-5.8c0-3.2-2.4-5.8-5.6-5.8c-3.2,0-5.6,2.6-5.6,5.8C78.3,25.4,80.7,28,83.8,28
		 M83.8,13.3c4.9,0,9,4,9,9c0,4.9-4,8.9-9,8.9c-4.9,0-8.9-4-8.9-8.9C74.9,17.3,78.9,13.3,83.8,13.3"/>
	<path class="st0-foot" d="M98.8,22.7c0,2.8,2,5.2,5,5.3v3.2c-4.6,0-8.4-4-8.4-8.7V9h3.4v4.5h5.4v3.2h-5.4V22.7z"/>
	<path class="st0-foot" d="M109.2,21.1H120c0-2.2-2.1-4.6-5.3-4.6C111.7,16.5,109.7,18.6,109.2,21.1 M114.7,28c0.6,0.1,1.2,0.1,1.8,0.1
		v3.2h-1.8c-4.9,0-8.9-4-8.9-8.9c0-5,4-9,8.9-9c4.1,0,8.8,3.2,8.8,9.6v1.4h-14C110.3,26.3,112.1,27.8,114.7,28"/>
	<path class="st0-foot" d="M4.7,16c0-6.3,4.7-11.4,11-11.4c6.3,0,11,5.1,11,11.4c0,6.2-4.7,11.4-11,11.4C9.4,27.4,4.7,22.3,4.7,16
		 M30,21.2c0.6-1.6,0.9-3.3,0.9-5.1c0-8.4-6.8-15.2-15.2-15.2C7.3,0.8,0.5,7.6,0.5,16c0,8.3,6.8,15.2,15.2,15.2
		c1.8,0,3.6-0.3,5.2-0.9L30,21.2z"/>
</g>
<polygon class="st0-foot" points="22.3,31.2 31.4,31.2 31.4,22.1 "/>
</svg>
